<svg width="385" height="388" xmlns="http://www.w3.org/2000/svg" xmlns:xlink="http://www.w3.org/1999/xlink" xml:space="preserve" overflow="hidden">
  <style>                             path{fill:#000}
    @media(prefers-color-scheme:dark){path{fill:#FFF}}
  </style>
  <defs>
    <clipPath id="clip0">
      <rect x="1461" y="612" width="385" height="388"/>
    </clipPath>
  </defs>
  <g clip-path="url(#clip0)" transform="translate(-1461 -612)">
    <path d="M1652.62 736.635 1594.85 804.458 1652.62 870.079 1707.3 804.458ZM1653.5 686.429C1657.32 686.429 1675.4 704.999 1707.74 742.141 1740.08 779.282 1756.24 800.054 1756.24 804.458 1756.24 809.156 1740.15 829.782 1707.96 866.336 1675.77 902.89 1657.62 921.167 1653.5 921.167 1648.21 921.167 1629.69 903.11 1597.94 866.997 1566.19 830.883 1550.31 810.037 1550.31 804.458 1550.31 799.174 1566.19 778.181 1597.94 741.48 1629.69 704.779 1648.21 686.429 1653.5 686.429ZM1738.55 612 1823.22 612C1830.86 612 1836.37 614.578 1839.75 619.734 1843.13 624.891 1844.82 630.857 1844.82 637.633 1844.82 841.501 1845.12 946.16 1845.71 951.61 1846.29 957.06 1846 959.785 1844.82 959.785 1846 978.938 1843.94 990.428 1838.65 994.254 1834.53 998.085 1823.95 999.853 1806.9 999.56 1803.96 999.853 1799.55 1000 1793.67 1000 1787.79 1000 1769.42 999.853 1738.55 999.56 1728.85 999.56 1723.85 992.513 1723.56 978.42 1723.85 966.089 1728.85 959.923 1738.55 959.923L1806.46 959.923 1806.46 650.315 1738.55 650.315C1727.67 650.315 1722.24 643.93 1722.24 631.158 1722.24 618.386 1727.67 612 1738.55 612ZM1483.78 612 1568.45 612C1579.33 612 1584.76 618.386 1584.76 631.158 1584.76 643.93 1579.33 650.315 1568.45 650.315L1500.54 650.315 1500.54 959.923 1568.45 959.923C1578.15 959.923 1583.15 966.089 1583.44 978.42 1583.15 992.513 1578.15 999.56 1568.45 999.56 1537.58 999.853 1519.21 1000 1513.33 1000 1507.45 1000 1503.04 999.853 1500.1 999.56 1483.05 999.853 1472.47 998.085 1468.35 994.254 1463.06 990.428 1461 978.938 1462.18 959.785 1461 959.785 1460.71 957.06 1461.29 951.61 1461.88 946.16 1462.18 841.501 1462.18 637.633 1462.18 630.857 1463.87 624.891 1467.25 619.734 1470.63 614.578 1476.14 612 1483.78 612Z" fill-rule="evenodd"/>
  </g>
</svg>